<svg width="43" height="40" viewBox="0 0 43 40" fill="none" xmlns="http://www.w3.org/2000/svg">
    <g clip-path="url(#a)" fill="#000">
        <path d="M34.048 33.343c3.227-3.381 4.987-7.286 5.3-11.846l-.096-.07c-.227.24-.443.492-.681.72-.335.318-.728.322-1.003.032-.275-.29-.251-.667.047-.983.64-.668 1.286-1.328 1.94-1.98.31-.311.686-.31.998 0 .644.642 1.281 1.292 1.913 1.95.323.339.34.728.068 1.017-.271.29-.68.276-1.03-.07-.25-.242-.477-.5-.752-.794-.125.91-.213 1.733-.355 2.544-.64 3.672-2.217 6.888-4.68 9.646-2.858 3.2-6.382 5.277-10.566 6.091-5.759 1.122-11.014-.14-15.672-3.75-3.386-2.63-5.61-6.082-6.777-10.238-.03-.108-.064-.216-.087-.325a.697.697 0 0 1 .06-.512.68.68 0 0 1 .394-.325.66.66 0 0 1 .505.054c.155.085.27.228.322.398.137.413.233.84.37 1.252a18.196 18.196 0 0 0 4.108 6.884c.074.078.156.15.304.292v-.52c0-4.98.003-9.958.01-14.936.009-.288.089-.57.232-.818.565-1.002 1.17-1.979 1.741-2.98.196-.345.429-.498.83-.497 6.576.009 13.153.009 19.732 0 .398 0 .639.14.836.488.567 1 1.177 1.977 1.74 2.98.148.262.23.556.238.858.015 4.936.018 9.873.01 14.81l.001.628zM10.014 18.334v.37c0 5.178-.002 10.354-.008 15.53 0 .285.126.435.32.584 3.83 2.926 8.136 4.193 12.905 3.717 3.393-.34 6.446-1.611 9.155-3.723.25-.196.334-.39.334-.7-.009-5.106-.011-10.212-.007-15.318v-.436h-8.012v3.29c0 .555-.384.849-.915.708-.443-.115-.892-.212-1.324-.359-.706-.24-1.395-.28-2.11-.028-.443.157-.911.243-1.366.367-.598.162-.956-.103-.959-.722v-3.28h-8.013zm8.526-3.392h-.515c-1.839 0-3.672.03-5.506-.017-.607-.015-.97.154-1.22.716-.199.448-.489.854-.77 1.332 2.514 0 4.932 0 7.356-.01a.395.395 0 0 0 .298-.233c.132-.574.233-1.155.357-1.79v.002zm5.645 0c.118.589.25 1.133.328 1.687.042.305.176.348.437.348 2.309-.009 4.617-.005 6.926-.006.083 0 .174-.02.304-.035-.34-.576-.669-1.098-.96-1.64-.143-.268-.308-.366-.615-.363-1.794.018-3.588.01-5.383.01h-1.037zm-4.808 5.963c1.33-.654 2.645-.61 3.959-.034V18.36h-3.959v2.545zm3.835-3.951c-.123-.639-.23-1.232-.362-1.82a.338.338 0 0 0-.25-.184 73.854 73.854 0 0 0-2.455 0c-.092 0-.245.097-.263.17-.134.598-.242 1.203-.363 1.83l3.693.004z"/>
        <path d="M3.517 17.924c.202-.227.395-.462.609-.679.345-.345.752-.363 1.028-.064.276.298.25.678-.073 1.017-.631.657-1.268 1.307-1.91 1.95-.304.307-.694.309-.998 0a173.222 173.222 0 0 1-1.909-1.95c-.325-.339-.348-.725-.084-1.017.265-.293.68-.28 1.031.056.263.254.52.509.78.763.007.007.025 0-.018 0 .273-1.297.444-2.614.83-3.862C4.774 7.761 8.829 3.258 15.08 1.154c7.69-2.589 14.524-.798 20.28 4.974 2.345 2.353 3.854 5.245 4.703 8.48.132.502-.032.871-.435.984-.369.103-.71-.133-.836-.612-.896-3.307-2.533-6.176-4.993-8.537-2.859-2.74-6.252-4.399-10.17-4.884C14.892.477 6.748 5.793 4.166 14.27c-.354 1.162-.55 2.375-.82 3.562l.172.093zM21.363 27.807c-1.946 0-3.892.01-5.837-.012-.237 0-.545-.108-.686-.279-.123-.15-.153-.526-.048-.678a.953.953 0 0 1 .668-.365c1.696-.03 3.392-.016 5.088-.016h6.715c.487 0 .78.267.773.686-.005.403-.29.655-.752.666h-.25l-5.67-.002zM21.372 29.159h5.712c.112-.005.224-.004.335.004.368.04.58.254.617.625a.673.673 0 0 1-.145.473.655.655 0 0 1-.427.242 2.087 2.087 0 0 1-.334.01H15.58a2.219 2.219 0 0 1-.293-.006.666.666 0 0 1-.433-.228.684.684 0 0 1-.165-.466c0-.171.067-.336.186-.457.12-.122.281-.19.45-.192.305-.017.612-.006.92-.006h5.127zM21.392 31.867h2.5c.52 0 .821.265.809.694-.012.411-.308.66-.804.66h-5.042c-.528 0-.827-.25-.828-.678-.002-.428.294-.678.824-.678l2.541.002z"/>
    </g>
    <defs>
        <clipPath id="a">
            <path fill="#fff" d="M0 0h42.727v40H0z"/>
        </clipPath>
    </defs>
</svg>
