<svg width="40" height="40" viewBox="0 0 40 40" fill="none" xmlns="http://www.w3.org/2000/svg">
<g clip-path="url(#clip0_6_379)">
<path d="M40.0079 22.6313H12.0143V14.415C10.7923 13.9813 9.67536 13.5912 8.56777 13.1871C7.98813 12.9765 7.41632 12.744 6.68785 12.4585V14.6241H0.0109863V0.079514H6.62205C6.64242 0.43681 6.66278 0.81283 6.69724 1.40104C7.33328 1.26062 7.98656 1.25906 8.48474 0.981336C9.85238 0.215255 11.2749 -0.0484263 12.8336 0.00618232C15.077 0.0841946 17.3251 0.0342668 19.57 0.0233451C20.3808 0.0043249 21.187 0.150952 21.9387 0.454181C22.6904 0.757411 23.3718 1.21081 23.9408 1.78642C24.9607 2.79122 25.9915 3.78822 26.98 4.82578C27.1433 5.00511 27.3453 5.14529 27.5708 5.23581C27.7962 5.32633 28.0393 5.36484 28.2819 5.34846C31.885 5.32818 35.4882 5.33754 39.0914 5.33754H40.0079V22.6313ZM11.0571 7.50784C13.0138 8.97135 13.9537 8.94015 16.512 7.36742C17.748 8.61562 18.9888 9.87629 20.2452 11.1245C20.9 11.7751 21.6974 11.8157 22.2552 11.2634C22.8129 10.711 22.7956 9.92934 22.1377 9.26468C20.947 8.06017 19.7502 6.8619 18.5345 5.68392C18.2039 5.36406 17.7903 5.12847 17.4144 4.85387L17.7449 4.73373L18.5454 3.7024C18.8588 4.04566 19.1031 4.35303 19.3867 4.61827C19.6703 4.88351 19.9726 5.28449 20.2812 5.29542C21.9873 5.36251 23.6964 5.32818 25.404 5.32818L25.5043 5.13003C24.7367 4.40139 23.9377 3.69616 23.2045 2.93632C22.724 2.4211 22.1383 2.01431 21.4868 1.74331C20.8353 1.4723 20.1331 1.34336 19.4274 1.36516C16.8175 1.387 14.206 1.36516 11.5944 1.38232C11.1282 1.38016 10.6665 1.47308 10.2378 1.65536C9.10667 2.1718 8.04452 2.85987 6.71291 2.66172V11.3648C7.80953 11.1307 8.59283 11.6565 9.45759 12.1137C10.1908 12.5069 11.0477 12.6691 11.9877 12.9796C11.9877 12.0965 11.95 11.4194 11.997 10.7547C12.0472 10.0276 11.9751 9.44567 11.1354 9.19447C10.8111 9.09461 10.5511 8.78412 10.2205 8.53761L11.0571 7.50784ZM13.3428 10.1088V21.2708H38.6434V6.78389H21.6583C22.2395 7.74344 23.0071 8.05237 24.0943 8.02428C27.121 7.94471 30.1508 7.9962 33.1806 7.99776C33.4548 7.99776 33.7305 8.02272 33.9874 8.03364C34.3415 10.6549 34.5467 10.8577 37.3446 11.4412V16.3888C36.4266 16.7788 35.4647 16.9348 34.9039 17.495C34.343 18.0551 34.1456 19.0459 33.7415 19.9586H18.2791C17.889 19.0443 17.7339 18.0863 17.1715 17.5293C16.6091 16.9723 15.6143 16.7773 14.7026 16.3778V11.4209C16.6702 11.1089 16.841 11.0402 17.4582 10.0994C17.2185 9.91062 16.9663 9.68126 16.6749 9.49871C16.501 9.38638 16.2551 9.24284 16.0875 9.28808C15.2039 9.52212 14.325 9.81232 13.3428 10.1135V10.1088ZM23.9205 9.36921V11.3523C25.8239 10.349 27.497 10.5191 28.6203 11.85C29.1202 12.4327 29.406 13.1677 29.4305 13.9338C29.4551 14.6999 29.2169 15.4515 28.7552 16.0648C28.2936 16.6781 27.636 17.1165 26.8907 17.3078C26.1454 17.4991 25.357 17.432 24.6552 17.1174C22.9836 16.356 22.4134 14.8769 22.91 12.5927C20.9846 13.2605 20.9846 13.2605 18.4217 11.3148C18.0535 11.5957 17.7183 12.0466 17.3094 12.1262C15.8603 12.4101 15.8697 13.4056 15.9809 14.5024C15.9903 14.6062 15.9903 14.7107 15.9809 14.8145C15.9449 15.1983 16.0608 15.3996 16.4869 15.5275C17.8232 15.9316 18.6802 16.8459 19.1768 18.1487C19.2567 18.364 19.5716 18.6355 19.7784 18.6371C23.9283 18.6652 28.0813 18.6542 32.2281 18.6667C32.6542 18.6667 32.7905 18.492 32.908 18.1097C33.2214 17.1002 33.8292 16.1641 34.8193 15.8739C36.0726 15.5057 36.1337 14.7333 36.0318 13.7363C36.0115 13.5304 36.0851 13.2979 36.013 13.1122C35.9253 12.8891 35.7686 12.5974 35.5728 12.5287C34.2193 12.0606 33.3341 11.1619 32.8532 9.82637C32.7874 9.6407 32.5399 9.39262 32.366 9.39106C29.5727 9.3661 26.7826 9.38014 23.9205 9.38014V9.36921ZM1.34105 1.41196V13.2698H5.22934V1.42289L1.34105 1.41196ZM27.9983 13.9813C27.9838 13.4681 27.7689 12.9807 27.3993 12.6228C27.0296 12.2649 26.5344 12.0646 26.0189 12.0646C25.5034 12.0646 25.0082 12.2649 24.6385 12.6228C24.2689 12.9807 24.054 13.4681 24.0395 13.9813C24.0321 14.2449 24.0778 14.5072 24.1739 14.7529C24.27 14.9985 24.4146 15.2225 24.5991 15.4115C24.7837 15.6006 25.0044 15.7508 25.2483 15.8534C25.4921 15.956 25.7542 16.0089 26.0189 16.0089C26.2836 16.0089 26.5457 15.956 26.7895 15.8534C27.0334 15.7508 27.2541 15.6006 27.4387 15.4115C27.6232 15.2225 27.7678 14.9985 27.8639 14.7529C27.9601 14.5072 28.0057 14.2449 27.9983 13.9813V13.9813Z" fill="#22242A"/>
<path d="M33.3419 28.6679V26.741H40.0078V39.9172H33.4015C33.3701 39.6364 33.3404 39.3633 33.3106 39.0872C33.2276 39.0872 33.1665 39.0685 33.1273 39.0872C31.3805 40.0483 29.4803 40.0155 27.5674 39.9843C25.3742 39.95 23.181 40.0202 20.9877 39.9516C20.2641 39.9341 19.5551 39.7448 18.9198 39.3992C14.9344 37.0823 10.9834 34.7045 7.02775 32.3391C5.55828 31.4607 5.09613 29.9676 5.85593 28.6195C6.61573 27.2715 8.17294 26.8939 9.65964 27.6834C11.8419 28.8457 14.0132 30.0237 16.2801 31.2501C16.8143 29.9098 18.0033 29.5853 19.2425 29.2732C21.3872 28.7318 23.4943 28.0063 25.6656 27.61C27.2807 27.3299 28.9263 27.2674 30.5581 27.4244C31.4714 27.5133 32.3315 28.1998 33.3419 28.6679ZM26.5116 31.4935C26.6291 31.9475 26.7293 32.3344 26.8515 32.8119C24.204 33.4906 21.6253 34.2067 19.0185 34.7903C18.5364 34.901 18.0305 34.841 17.588 34.6206C17.1454 34.4003 16.7938 34.0332 16.5934 33.5826C16.1955 32.7401 15.5407 32.3703 14.8091 31.9865C13.7955 31.4545 12.7928 30.8943 11.7839 30.3592C10.7751 29.824 9.7693 29.267 8.75258 28.7443C8.16353 28.4416 7.62463 28.5883 7.19538 29.0564C6.81 29.4761 6.68152 29.9925 7.00424 30.4871C7.22642 30.8014 7.51454 31.0639 7.84864 31.2563C11.6884 33.5608 15.525 35.8653 19.3945 38.1214C19.9332 38.4225 20.5378 38.5875 21.1554 38.6019C23.582 38.655 26.0118 38.5629 28.4369 38.6472C29.9475 38.6963 31.4489 38.3962 32.8234 37.7703C33.2166 37.5956 33.3639 37.399 33.3592 36.9684C33.3372 34.9401 33.3592 32.9117 33.3435 30.8834C33.3435 30.6884 33.331 30.3779 33.2182 30.3155C32.0714 29.6914 31.1142 28.6819 29.6698 28.646C27.8604 28.6008 26.0964 28.7506 24.3434 29.292C22.4635 29.8755 20.5224 30.3092 18.6159 30.8304C17.7668 31.0628 17.3422 31.7166 17.5036 32.4468C17.665 33.177 18.3229 33.5639 19.2096 33.4017C19.7219 33.3065 20.2201 33.152 20.7245 33.0178C22.6342 32.5232 24.5392 32.0177 26.5116 31.4935V31.4935ZM38.6558 38.5863V28.0235H34.7691V38.5863H38.6558Z" fill="#22242A"/>
</g>
<defs>
<clipPath id="clip0_6_379">
<rect width="40" height="40" fill="white"/>
</clipPath>
</defs>
</svg>
