<svg width="45" height="40" viewBox="0 0 45 40" fill="none" xmlns="http://www.w3.org/2000/svg">
    <path fill-rule="evenodd" clip-rule="evenodd" d="M6.23 0h32.085l6.23 10.211v.263a6.582 6.582 0 0 1-1.452 4.133 6.776 6.776 0 0 1-3.747 2.353 6.867 6.867 0 0 1-4.423-.443 6.75 6.75 0 0 1-2.319-1.75 6.702 6.702 0 0 1-1.618 1.382 6.817 6.817 0 0 1-3.549.994 6.817 6.817 0 0 1-3.548-.994 6.701 6.701 0 0 1-1.616-1.378 6.7 6.7 0 0 1-1.616 1.378 6.818 6.818 0 0 1-3.549.994 6.817 6.817 0 0 1-3.548-.994 6.698 6.698 0 0 1-1.619-1.381 6.75 6.75 0 0 1-2.319 1.749 6.867 6.867 0 0 1-4.423.443 6.777 6.777 0 0 1-3.747-2.353A6.582 6.582 0 0 1 0 10.474v-.263L6.23 0zm1.097 1.905L1.943 10.73a4.7 4.7 0 0 0 1.03 2.698 4.836 4.836 0 0 0 2.674 1.679 4.9 4.9 0 0 0 3.157-.316 4.79 4.79 0 0 0 2.274-2.176l.87-1.707.863 1.71a4.748 4.748 0 0 0 1.77 1.912 4.858 4.858 0 0 0 5.055 0 4.747 4.747 0 0 0 1.77-1.912l.867-1.718.867 1.718a4.747 4.747 0 0 0 1.77 1.912 4.857 4.857 0 0 0 5.056 0 4.747 4.747 0 0 0 1.768-1.912l.863-1.71.87 1.707a4.79 4.79 0 0 0 2.275 2.176 4.9 4.9 0 0 0 3.156.316c1.059-.247 2.001-.84 2.674-1.68a4.7 4.7 0 0 0 1.03-2.697L37.22 1.905H7.326zm.42 19.047v17.143h9.684v-9.524c0-1.052.867-1.904 1.937-1.904h5.81c1.07 0 1.937.852 1.937 1.904v9.524h9.683V20.952h1.937v17.143c0 1.052-.867 1.905-1.937 1.905H7.747c-1.07 0-1.937-.853-1.937-1.905V20.952h1.937zm17.43 17.143v-9.524h-5.81v9.524h5.81z" fill="#22242A"/>
</svg>
