<svg width="51" height="40" viewBox="0 0 51 40" fill="none" xmlns="http://www.w3.org/2000/svg">
    <path fill-rule="evenodd" clip-rule="evenodd" d="M5.728 0h29.496l5.728 9.482v.244a6.15 6.15 0 0 1-1.334 3.837 6.223 6.223 0 0 1-3.445 2.186 6.256 6.256 0 0 1-4.067-.412 6.212 6.212 0 0 1-2.132-1.624 6.222 6.222 0 0 1-9.498.003c-.421.5-.922.933-1.485 1.28a6.222 6.222 0 0 1-8.013-1.283 6.212 6.212 0 0 1-2.132 1.624 6.256 6.256 0 0 1-4.066.412 6.223 6.223 0 0 1-3.445-2.186A6.15 6.15 0 0 1 0 9.726v-.244L5.729 0zm1.008 1.769-4.95 8.194a4.39 4.39 0 0 0 .947 2.506 4.44 4.44 0 0 0 2.459 1.559c.973.23 1.995.126 2.901-.294a4.423 4.423 0 0 0 2.092-2.02l.8-1.585.793 1.588c.365.73.928 1.346 1.626 1.775a4.432 4.432 0 0 0 4.648 0 4.391 4.391 0 0 0 1.627-1.775l.797-1.596.798 1.596c.365.73.928 1.346 1.626 1.775a4.432 4.432 0 0 0 4.648 0 4.391 4.391 0 0 0 1.626-1.775l.794-1.588.8 1.585a4.423 4.423 0 0 0 2.091 2.02c.906.42 1.929.524 2.902.294a4.44 4.44 0 0 0 2.458-1.56c.57-.718.9-1.594.947-2.505l-4.95-8.194H6.736zm.386 17.687v15.918h8.903v-8.843c0-.977.797-1.77 1.78-1.77h5.342c.983 0 1.78.793 1.78 1.77v8.843h8.903V19.456h1.78v15.918c0 .977-.796 1.769-1.78 1.769H7.122c-.983 0-1.78-.792-1.78-1.769V19.456h1.78zm16.025 15.918v-8.843h-5.342v8.843h5.342z" fill="#22242A"/>
    <circle cx="39.048" cy="28.571" r="10.429" fill="#F8F8F9" stroke="#22242A" stroke-width="2"/>
    <path d="M35.578 28.41v4.738h5.256c.637 0 1.055.411 1.07 1.012.017.629-.41 1.07-1.08 1.072-2.032.008-4.064.008-6.097 0-.728 0-1.072-.398-1.076-1.216-.008-1.603 0-3.204 0-4.807v-.805c-.242.243-.39.394-.539.54-.464.457-1.04.474-1.416.042-.376-.431-.353-1.035.057-1.5.706-.8 1.422-1.592 2.154-2.364.46-.485.941-.48 1.401.011.733.773 1.451 1.561 2.154 2.366.407.463.403 1.092.036 1.5-.367.408-.93.401-1.368-.021-.157-.147-.303-.31-.552-.569zM43.677 29.13c.13-.187.276-.363.438-.525a.948.948 0 0 1 1.314.04c.358.39.39.855.033 1.233a42.651 42.651 0 0 1-2.332 2.256c-.42.377-.903.3-1.305-.081-.725-.688-1.445-1.38-2.15-2.088-.407-.41-.404-.963-.04-1.323.366-.36.93-.358 1.367.015.157.133.305.278.524.48v-5.362c-.18-.009-.382-.026-.587-.026h-4.566c-.693 0-1.116-.344-1.134-.892-.018-.574.42-.947 1.145-.948 1.987-.005 3.975-.005 5.962 0 .807 0 1.145.334 1.145 1.132v6l.186.089z" fill="#22242A"/>
</svg>
